<svg version="1.2" xmlns="http://www.w3.org/2000/svg" viewBox="0 0 500 500" width="500" height="500">
	<title>brise42_Minimalist_logo__Design_a_sleek_modern__AI_blockchain_s_49e4435f-dc85-49fb-a805-bbc6fbeefd79-svg</title>
	<style>
		.s0 { fill: #000000 } 
	</style>
	<path class="s0" d="m335.8 224.8c-20.9 15.8-41.3 31.6-62.1 46.9-27.6 20.6-54.8 41.9-83.6 60.8-16 10.5-32.7 19.3-51.7 23.2-7.4 1.6-14.9 2.1-22.3 1.3-10.1-1-18.8-4.8-25.7-12.7-14.3-16.4-29.1-32.1-42.4-49.3-3.1-3.9-6-8.1-6.2-13.3-0.2-4.1 1.5-5.5 5-3.8 31.1 14.4 59.8 7.9 86.8-10.4 25.1-17 48.5-36.4 72.8-54.5 29.1-21.7 56.9-45.2 87.2-65.3 18.6-12.3 38.4-22 60.7-25.5 10.1-1.5 20.2-1.8 30.3 0.5 8.7 1.9 16.3 6 22.1 12.8 15.3 17.8 30.9 35.3 45.3 53.9 3.2 4.1 5.7 8.6 5 13.9-1.6 1.2-2.8 0.3-3.9-0.2-33.4-16.1-65.5-13.2-96.4 6.6-7.1 4.6-14 9.6-20.9 15.1z"/>
	<path class="s0" d="m406.7 294.3c9.5 12.7 17.3 25.7 19.2 41.6 1.5 13-1.6 24.5-10.9 33.9-9.4 9.5-20.4 17.1-31.1 25.1-10.5 7.9-21.1 15.7-31.6 23.6-2.3 1.7-4.7 3.2-7.5 3.9-1.7 0.4-3.7 1.7-5.2 0.1-1.7-1.7-0.6-3.8 0.3-5.6 3-6.1 5-12.6 6.1-19.4 3.1-19.4-2-36.1-14.8-50.9-18.5-21.3-39.9-39.2-62.6-55.7-1.7-1.2-3.9-2-4.6-5.1 4.9-3.8 10-7.7 15.1-11.6q26.8-20.6 53.6-41.1c6.2-4.8 6.3-4.8 12.5 0.2 22.7 18 43.5 37.8 61.5 61z"/>
	<path class="s0" d="m67 153.3c0.9-14.2 7.5-24.7 18.2-33q27.1-20.9 54.2-41.7c2.4-1.8 5-3.4 8-3.9 1.5-0.2 3.1-0.6 4.2 0.9 0.9 1.3-0.1 2.5-0.6 3.7-4.8 10.3-6.8 21.1-6.8 32.4-0.1 17 7.6 30.4 18.7 42.2 13.8 14.9 30.1 26.8 46.9 37.9 2.4 1.7 5.4 2.7 7.3 6.2-4.3 3.4-8.6 7-13.1 10.3-19 14.6-38.1 29.1-57.2 43.6-2.4 1.9-4.5 2.3-7.1 0.2-21.2-16.8-41.6-34.4-57.6-56.4-9.1-12.5-15.5-26-15.1-42.4z"/>
</svg>